<svg width="60" height="40" viewBox="0 0 60 40" fill="none" xmlns="http://www.w3.org/2000/svg">
<path d="M40 20C40 31.0457 31.0457 40 20 40C8.9543 40 0 31.0457 0 20C0 8.9543 8.9543 0 20 0C31.0457 0 40 8.9543 40 20Z" fill="#3E640D"/>
<path d="M49.8105 20C49.8105 31.0457 40.8562 40 29.8105 40C18.7649 40 9.81055 31.0457 9.81055 20C9.81055 8.9543 18.7649 0 29.8105 0C40.8562 0 49.8105 8.9543 49.8105 20Z" fill="#669924"/>
<path d="M59.623 20C59.623 31.0457 50.6687 40 39.623 40C28.5774 40 19.623 31.0457 19.623 20C19.623 8.9543 28.5774 0 39.623 0C50.6687 0 59.623 8.9543 59.623 20Z" fill="#D2FF99"/>
<path fill-rule="evenodd" clip-rule="evenodd" d="M59.2067 24.0796C59.4796 22.7625 59.623 21.398 59.623 20C59.623 18.5786 59.4748 17.1918 59.1928 15.8542C59.0242 15.8314 58.8522 15.8196 58.6776 15.8196H41.7238C39.5324 15.8196 37.7559 17.6768 37.7559 19.9679C37.7559 22.2589 39.5324 24.1161 41.7238 24.1161H58.6776C58.857 24.1161 59.0336 24.1037 59.2067 24.0796Z" fill="black"/>
</svg>
