<svg width="69" height="54" viewBox="0 0 69 54" fill="none" xmlns="http://www.w3.org/2000/svg">
<path d="M66.2721 0V3.96108C60.7093 6.00898 56.35 9.24251 53.1942 13.6617C50.0384 18.0269 48.4605 22.5808 48.4605 27.3234C48.4605 28.3473 48.6209 29.1018 48.9419 29.5868C49.1558 29.9102 49.3965 30.0719 49.664 30.0719C49.9314 30.0719 50.3326 29.8832 50.8674 29.506C52.5791 28.2665 54.7453 27.6467 57.3663 27.6467C60.4151 27.6467 63.1163 28.9132 65.4698 31.4461C67.8233 33.9251 69 36.8892 69 40.3383C69 43.9491 67.636 47.1287 64.9081 49.8772C62.2337 52.6257 58.9709 54 55.1198 54C50.6267 54 46.7488 52.1407 43.486 48.4222C40.2233 44.7036 38.5919 39.7186 38.5919 33.4671C38.5919 26.1916 40.8116 19.6707 45.2512 13.9042C49.6907 8.13772 56.6977 3.50299 66.2721 0ZM27.6802 0V3.96108C22.1174 6.00898 17.7581 9.24251 14.6023 13.6617C11.4465 18.0269 9.8686 22.5808 9.8686 27.3234C9.8686 28.3473 10.0291 29.1018 10.35 29.5868C10.564 29.9102 10.8047 30.0719 11.0721 30.0719C11.3395 30.0719 11.7407 29.8832 12.2756 29.506C13.9872 28.2665 16.1535 27.6467 18.7744 27.6467C21.8233 27.6467 24.5244 28.9132 26.8779 31.4461C29.2314 33.9251 30.4081 36.8892 30.4081 40.3383C30.4081 43.9491 29.0442 47.1287 26.3163 49.8772C23.6419 52.6257 20.3791 54 16.5279 54C12.0349 54 8.15698 52.1407 4.89419 48.4222C1.6314 44.7036 0 39.7186 0 33.4671C0 26.1916 2.21977 19.6707 6.6593 13.9042C11.0988 8.13772 18.1058 3.50299 27.6802 0Z" fill="#1B1716"/>
</svg>
